<svg width="334" height="62" viewBox="0 0 334 62" fill="none" xmlns="http://www.w3.org/2000/svg">
<path d="M21.7001 20.925V11.625H13.5626C3.33262 12.555 0.258455 20.7958 0.00012207 24.8V62C12.0126 62 11.2376 52.3125 11.2376 50.375C11.2376 48.825 12.271 48.6958 12.7876 48.825H32.1626C40.2226 48.205 43.7876 38.75 44.5626 34.1H34.4876C34.1776 38.44 30.7418 39.525 29.0626 39.525H13.5626C12.0126 39.525 11.3668 38.4917 11.2376 37.975V27.5125C11.2376 22.5525 15.1126 21.0542 17.0501 20.925H21.7001Z" fill="#667CE7"/>
<path d="M34.4879 9.90648V1.71852C34.4879 0.769407 35.2573 0 36.2064 0H42.8444C43.7935 0 44.5629 0.769407 44.5629 1.71852V9.90648C44.5629 10.8556 45.3323 11.625 46.2814 11.625H54.4694C55.4185 11.625 56.1879 12.3944 56.1879 13.3435V19.2065C56.1879 20.1556 55.4185 20.925 54.4694 20.925H46.2814C45.3323 20.925 44.5629 21.6944 44.5629 22.6435V30.444C44.5629 31.3931 43.7935 32.1625 42.8444 32.1625H36.2064C35.2573 32.1625 34.4879 31.3931 34.4879 30.444V22.256C34.4879 21.3069 33.7185 20.5375 32.7694 20.5375H25.7439C24.7948 20.5375 24.0254 19.7681 24.0254 18.819V13.3435C24.0254 12.3944 24.7948 11.625 25.7439 11.625H32.7694C33.7185 11.625 34.4879 10.8556 34.4879 9.90648Z" fill="#667CE7"/>
<path d="M307.024 12.828H315.76V42.956H333.624V49.172H307.024V12.828Z" fill="#667CE7"/>
<path d="M279.249 12.828H289.889L302.993 49.172H294.145L290.897 39.596H277.625L274.433 49.172H265.809L279.249 12.828ZM288.993 33.772L284.401 20.108H284.177L279.585 33.772H288.993Z" fill="#667CE7"/>
<path d="M244.713 19.044H233.513V12.828H264.593V19.044H253.449V49.172H244.713V19.044Z" fill="#667CE7"/>
<path d="M219.742 12.828H228.478V49.172H219.742V12.828Z" fill="#667CE7"/>
<path d="M184.633 12.828H199.193C202.74 12.828 205.54 13.0707 207.593 13.556C209.684 14.0413 211.196 14.9 212.129 16.132C213.1 17.3267 213.585 19.0067 213.585 21.172V28.06C213.585 30.4493 213.062 32.316 212.017 33.66C211.009 35.004 209.385 35.956 207.145 36.516C204.942 37.076 201.956 37.356 198.185 37.356H193.369V49.172H184.633V12.828ZM198.913 31.364C201.19 31.364 202.796 31.1027 203.729 30.58C204.662 30.02 205.129 29.0867 205.129 27.78V21.956C205.129 20.7613 204.681 19.9773 203.785 19.604C202.926 19.2307 201.265 19.044 198.801 19.044H193.369V31.364H198.913Z" fill="#667CE7"/>
<path d="M162.432 49.732C158.96 49.732 154.667 49.396 149.552 48.724V42.06C155.899 43.0307 160.229 43.516 162.544 43.516C167.397 43.516 169.824 42.2653 169.824 39.764V37.412C169.824 36.2173 169.469 35.3027 168.76 34.668C168.088 34.0333 166.856 33.716 165.064 33.716H160.808C152.819 33.716 148.824 30.5427 148.824 24.196V21.508C148.824 18.3347 150.149 16.0013 152.8 14.508C155.451 13.0147 159.651 12.268 165.4 12.268C168.387 12.268 172.176 12.5107 176.768 12.996V19.492C171.131 18.82 167.248 18.484 165.12 18.484C162.171 18.484 160.192 18.7267 159.184 19.212C158.101 19.7347 157.56 20.556 157.56 21.676V24.252C157.56 26.156 159.165 27.108 162.376 27.108H166.744C170.888 27.108 173.893 27.8733 175.76 29.404C177.627 30.9347 178.56 33.268 178.56 36.404V38.812C178.56 43.1427 177.011 46.0733 173.912 47.604C172.419 48.388 170.757 48.9293 168.928 49.228C167.136 49.564 164.971 49.732 162.432 49.732Z" fill="#667CE7"/>
<path d="M126.338 49.732C124.322 49.732 122.455 49.6013 120.738 49.34C119.058 49.0787 117.303 48.6307 115.474 47.996C113.495 47.324 111.946 46.2413 110.826 44.748C109.706 43.2173 109.146 41.3693 109.146 39.204V23.3C109.146 21.508 109.538 19.9027 110.322 18.484C111.143 17.0653 112.189 15.9453 113.458 15.124C114.578 14.4147 115.959 13.8173 117.602 13.332C119.245 12.8467 120.775 12.548 122.194 12.436C123.501 12.324 124.882 12.268 126.338 12.268C128.055 12.268 129.549 12.3427 130.818 12.492C132.087 12.604 133.506 12.8653 135.074 13.276C136.866 13.7987 138.341 14.4333 139.498 15.18C140.655 15.9267 141.626 16.972 142.41 18.316C143.231 19.6973 143.642 21.3587 143.642 23.3V39.204C143.642 41.22 143.101 42.956 142.018 44.412C140.973 45.868 139.517 46.9693 137.65 47.716C134.29 49.06 130.519 49.732 126.338 49.732ZM126.45 43.516C127.682 43.516 128.709 43.4787 129.53 43.404C130.389 43.292 131.266 43.1053 132.162 42.844C133.058 42.5827 133.73 42.1533 134.178 41.556C134.663 40.9213 134.906 40.1373 134.906 39.204V23.244C134.906 21.5267 134.215 20.3133 132.834 19.604C131.453 18.8573 129.306 18.484 126.394 18.484C123.482 18.484 121.335 18.8387 119.954 19.548C118.573 20.2573 117.882 21.4893 117.882 23.244V39.204C117.882 40.1373 118.125 40.9213 118.61 41.556C119.095 42.1533 119.805 42.5827 120.738 42.844C121.634 43.1053 122.493 43.292 123.314 43.404C124.173 43.4787 125.218 43.516 126.45 43.516Z" fill="#667CE7"/>
<path d="M69.1877 12.828H77.9237V27.388H93.3797V12.828H102.116V49.172H93.3797V33.604H77.9237V49.172H69.1877V12.828Z" fill="#667CE7"/>
</svg>
